<svg version="1.1" xmlns="http://www.w3.org/2000/svg" xmlns:xlink="http://www.w3.org/1999/xlink" width="118.76262" height="84.08458" viewBox="0,0,118.76262,84.08458"><g transform="translate(-180.61869,-139.20771)"><g data-paper-data="{&quot;isPaintingLayer&quot;:true}" fill-rule="nonzero" stroke-linejoin="miter" stroke-miterlimit="10" stroke-dasharray="" stroke-dashoffset="0" style="mix-blend-mode: normal"><g fill="none" stroke="#000000" stroke-width="5" stroke-linecap="round"><path d="M222.52181,173.90405v46.88824h-7.59763"/><path d="M258.56356,173.90405v46.88824h-7.59763"/></g><g stroke="none" stroke-width="1" stroke-linecap="butt"><path d="M298.12173,144.06171c0.65,0.7584 0.6,1.7191 0.8,2.5786c0.1,0.4045 0.15,0.809 0.15,1.2135c0.1,1.4663 0.2,2.882 0.3,4.3483c0.05,0.5562 -0.1,1.0113 -0.35,1.5169c-1.8,3.5899 -3.55,7.2303 -5.4,10.8202c-1.35,2.5786 -2.6,5.1573 -3.9,7.7865c-0.8,1.618 -1.75,3.1854 -2.55,4.8034c-0.95,1.8202 -1.95,3.6404 -2.8,5.4607c-0.45,0.9101 -1.1,1.2134 -2,1.264c-0.55,0 -1.1,0 -1.65,0c-2.65,-0.1517 -5.35,-0.3034 -8,-0.4551c-2.35,-0.1516 -4.7,-0.4045 -7.05,-0.5561c-2.3,-0.1517 -4.65,-0.2528 -6.95,-0.4045c-3.7,-0.2528 -7.4,-0.5056 -11.1,-0.7585c-3.2,-0.2022 -6.4,-0.455 -9.55,-0.7078c-2.4,-0.2023 -4.75,-0.354 -7.15,-0.6068c-1.8,-0.2022 -3.6,-0.2528 -5.4,-0.3539c-1.1,-0.0506 -2.15,-0.1517 -3.25,-0.2528c-2.45,-0.2023 -4.95,-0.3539 -7.4,-0.5562c-3.85,-0.3034 -7.75,-0.6067 -11.6,-0.9101c-3.85,-0.3034 -7.7,-0.6067 -11.6,-0.9101c-2.5,-0.2023 -5,-0.4045 -7.5,-0.7584c-1.8,-0.2528 -1.85,-0.2023 -2.2,-1.9719c-0.45,-2.2753 -0.85,-4.6012 -1.1,-6.927c-0.05,-0.2528 0,-0.5056 -0.1,-0.7079c-0.35,-0.7078 -0.05,-1.2135 0.4,-1.7696c1.6,-2.0225 3.15,-4.045 4.7,-6.118c1.1,-1.4663 2.3,-2.882 3.45,-4.3483c2.9,-3.5394 5.85,-7.0281 8.75,-10.5674c1.1,-1.3147 2.15,-2.6798 3.35,-3.9944c0.15,-0.1517 0.25,-0.3034 0.4,-0.4551c0.35,-0.4045 0.75,-0.5562 1.25,-0.5562c1.45,0.0506 2.9,0.0506 4.3,0.1012c4.25,0.1516 8.55,0.3033 12.8,0.5056c5.15,0.2528 10.3,0.5562 15.45,0.809c3.25,0.2022 6.55,0.3539 9.8,0.5561c3.85,0.2529 7.65,0.5057 11.5,0.7079c4.9,0.3034 9.8,0.5562 14.7,0.809c2.9,0.1517 5.85,0.3034 8.75,0.4551c3.65,0.2022 7.35,0.4044 11,0.6067c1.5,0.1011 3.05,0.1011 4.55,0.1517c0.65,0 1.4,0.0505 2.2,0.1517zM296.92173,145.02231c-1.5,-0.1011 -2.9,-0.2022 -4.3,-0.2528c-3.45,-0.1517 -6.85,-0.3033 -10.3,-0.4045c-4.85,-0.1516 -9.65,-0.455 -14.5,-0.7584c-2.05,-0.1517 -4.05,-0.2022 -6.1,-0.3034c-3.6,-0.2022 -7.2,-0.455 -10.75,-0.6573c-2.2,-0.1517 -4.4,-0.2528 -6.6,-0.3539c-4.5,-0.2528 -9,-0.5562 -13.5,-0.8595c-2.45,-0.1517 -4.85,-0.2023 -7.3,-0.3034c-2.85,-0.1517 -5.65,-0.2528 -8.5,-0.4045c-3,-0.1517 -6,-0.3034 -9,-0.4045c-1.05,-0.0506 -2.05,-0.2528 -3.15,-0.1011c-0.35,0.4045 -0.75,0.809 -1.1,1.264c-2.35,3.0337 -4.85,5.9157 -7.3,8.8483c-3.55,4.1461 -7,8.3933 -10.35,12.7416c-0.65,0.809 -1.25,1.6685 -1.85,2.4775c0.15,0.2528 0.35,0.3034 0.55,0.3034c2.1,0.2528 4.2,0.4551 6.3,0.6573c1.95,0.2023 1.95,0.2023 3.25,-1.3652c2,-2.4269 3.9,-5.0056 6,-7.382c0.55,-0.6573 1.1,-1.0112 1.95,-0.9101c0.2,0 0.4,0 0.6,0.0506c2.25,0.1516 4.55,0.3033 6.8,0.455c3.1,0.1517 6.25,0.2023 9.35,0.354c3.35,0.1516 6.7,0.3033 10.05,0.455c2.25,0.1011 4.45,0.2528 6.7,0.3539c1.7,0.1012 3.45,0.2528 5.15,0.3034c2.85,0.1517 5.65,0.2528 8.5,0.3539c2.55,0.1012 5.1,0.2529 7.65,0.4045c2.25,0.1517 4.45,0.354 6.7,0.4045c3.3,0.1012 6.6,0.354 9.95,0.5562c2.7,0.1517 5.4,0.4045 8.1,0.6573c0.35,0 0.65,0.1011 0.9,0.2528c0.35,0.2023 0.5,0.5056 0.35,0.9101c-0.1,0.3034 -0.25,0.6068 -0.35,0.9101c-0.4,1.0113 -1.1,1.8708 -1.6,2.8315c-1.1,2.073 -2.05,4.1966 -3.25,6.2191c-0.1,0.1517 -0.15,0.3034 -0.05,0.4551c1.45,0.2528 4.9,0.4045 5.75,0.2528c0.8,-1.4158 1.65,-2.8315 2.45,-4.2472c1.4,-2.6292 2.75,-5.2584 4.15,-7.9382c1.1,-2.0731 2.15,-4.1461 3.3,-6.1686c1.45,-2.6797 2.9,-5.3595 4.5,-7.9887c0.3,-0.6068 0.7,-1.0113 0.85,-1.6686zM212.52173,158.62351c-0.55,-0.0506 -1.15,-0.0506 -1.7,-0.1012c-0.5,-0.0505 -0.85,0.1012 -1.15,0.5057c-0.8,1.0618 -1.65,2.073 -2.35,3.1854c-0.45,0.7078 -1,1.3651 -1.55,2.0224c-0.15,0.2023 -0.35,0.4551 -0.65,0.4551c-0.7,0 -1.45,0.1011 -2.1,-0.1517c0,-0.6573 0,-0.7079 0.2,-0.9607c0.35,-0.5056 0.75,-1.0618 1.15,-1.5674c0.75,-1.0112 1.5,-2.0225 2.25,-2.9831c0.1,-0.1517 0.25,-0.3034 0.2,-0.6068c-0.45,-0.1011 -0.9,-0.1517 -1.25,-0.0505c-1.1,1.2134 -1.95,2.4775 -2.8,3.7415c-0.45,0.6573 -1,1.2641 -1.5,1.8708c-0.15,0.2023 -0.3,0.4045 -0.55,0.4045c-0.75,0.0506 -1.5,0.1011 -2.15,-0.1517c-0.15,-0.455 0.05,-0.7078 0.2,-0.9607c0.4,-0.6067 0.85,-1.1629 1.3,-1.7696c0.6,-0.8596 1.25,-1.6686 1.9,-2.5281c0.1,-0.1517 0.2,-0.3539 0.15,-0.6067c-0.35,-0.0506 -0.75,-0.0506 -1.15,-0.1517c-0.45,-0.1517 -0.75,0.0505 -1.05,0.4045c-0.45,0.6067 -0.95,1.2134 -1.45,1.7696c-1.3,1.5674 -2.4,3.3371 -3.85,4.8034c-0.2,0.2022 -0.35,0.4551 -0.35,0.809c0.65,0.2022 1.3,0.2022 1.95,0.2528c2,0.1517 4,0.2528 6,0.4045c2.85,0.2022 5.65,0.4045 8.5,0.6573c3.3,0.2528 6.6,0.5056 9.9,0.7584c2.05,0.1517 4.05,0.3034 6.1,0.4045c1.7,0.1011 3.45,0.2023 5.15,0.3539c1.55,0.1012 3.1,0.2529 4.65,0.354c1.85,0.1011 3.65,0.2022 5.5,0.3539c3.05,0.2023 6.05,0.4551 9.1,0.6573c1.85,0.1517 3.75,0.2528 5.6,0.3539c2.9,0.2023 5.8,0.4551 8.7,0.6574c1.65,0.1516 3.35,0.3033 5,0.4044c1.5,0.1012 3,0.354 4.55,0.2529c1.6,-2.7809 3.2,-5.5113 4.75,-8.2922c0.2,-0.3539 0.45,-0.7584 0.45,-1.2135c-0.8,-0.1516 -1.55,-0.1516 -2.25,-0.2022c-1.05,1.0618 -1.85,2.3258 -2.65,3.4888c-0.5,0.7584 -1.05,1.4157 -1.65,2.073c-0.2,0.2022 -0.35,0.455 -0.7,0.455c-0.7,0 -1.45,0.1012 -2.05,-0.2528c-0.1,-0.455 0.05,-0.7584 0.3,-1.0618c0.45,-0.5561 0.85,-1.1629 1.3,-1.7191c0.6,-0.809 1.2,-1.6179 1.8,-2.4269c0.2,-0.2528 0.35,-0.5562 0.2,-0.8596c-0.25,-0.1517 -0.55,-0.1517 -0.8,-0.0505c-1.05,1.0618 -1.8,2.3764 -2.7,3.5393c-0.5,0.7078 -1,1.3652 -1.55,2.0225c-0.15,0.2022 -0.35,0.455 -0.65,0.455c-0.7,0 -1.45,0.1011 -2.1,-0.2022c-0.15,-0.5562 0.15,-0.8596 0.4,-1.2135c0.95,-1.3146 1.9,-2.5787 2.9,-3.8933c0.15,-0.2528 0.35,-0.455 0.4,-0.7584c0,-0.0506 -0.05,-0.1517 -0.1,-0.2528c-0.3,-0.0506 -0.6,-0.1011 -0.9,0c-1.05,1.1123 -1.8,2.3764 -2.7,3.5899c-0.5,0.7078 -1,1.3651 -1.55,2.0224c-0.15,0.2023 -0.35,0.4551 -0.65,0.4551c-0.7,0 -1.45,0.1011 -2.1,-0.1517c-0.2,-0.4045 0,-0.7078 0.15,-0.9607c0.4,-0.6067 0.85,-1.1629 1.3,-1.7696c0.6,-0.8596 1.25,-1.6686 1.9,-2.5281c0.2,-0.2528 0.4,-0.5056 0.25,-0.9101c-0.95,-0.0506 -1.9,-0.1011 -2.8,-0.1011c-1.05,1.1123 -1.85,2.3258 -2.65,3.5393c-0.5,0.7584 -1,1.4663 -1.65,2.073c-0.15,0.1517 -0.35,0.4045 -0.55,0.4551c-0.8,0.1011 -1.55,0.2022 -2.25,-0.2528c-0.05,-0.4045 0.1,-0.7079 0.3,-0.9607c0.35,-0.5056 0.75,-1.0618 1.15,-1.5674c0.65,-0.8596 1.3,-1.7191 1.95,-2.6292c0.15,-0.2529 0.3,-0.4551 0.3,-0.7585c-0.35,-0.2022 -0.7,-0.1011 -1,-0.0505c-1.05,1.0618 -1.8,2.3258 -2.6,3.4887c-0.5,0.7585 -1.05,1.4158 -1.65,2.0731c-0.15,0.1517 -0.3,0.4045 -0.55,0.4045c-0.75,0.0505 -1.5,0.1516 -2.15,-0.2528c-0.1,-0.4045 0.1,-0.7079 0.25,-0.9607c0.35,-0.5056 0.75,-1.0618 1.15,-1.5674c0.65,-0.8596 1.3,-1.7191 1.95,-2.6293c0.15,-0.2528 0.35,-0.455 0.3,-0.8595c-1.3,-0.1011 -2.65,-0.3034 -3.95,-0.2023c-1.05,1.1124 -1.85,2.3259 -2.65,3.5394c-0.5,0.7078 -1.05,1.4157 -1.65,2.073c-0.2,0.2528 -0.45,0.4551 -0.8,0.4551c-0.65,-0.0506 -1.3,0.0505 -1.9,-0.1517c-0.05,-0.7079 -0.05,-0.7079 0.2,-1.0113c0.4,-0.6067 0.85,-1.1629 1.3,-1.7696c0.65,-0.8596 1.3,-1.7191 1.95,-2.6292c0.15,-0.2023 0.25,-0.4045 0.1,-0.6573c-0.45,-0.2023 -0.85,-0.1517 -1.15,0.3033c-0.2,0.2528 -0.4,0.5057 -0.6,0.7585c-0.55,0.809 -1.1,1.5674 -1.65,2.3764c-0.5,0.7078 -1,1.3651 -1.55,1.9719c-0.15,0.1517 -0.35,0.4045 -0.55,0.455c-0.8,0.1012 -1.55,0.2023 -2.35,-0.3033c0.4,-1.1124 1.2,-1.9214 1.85,-2.8315c0.65,-0.9101 1.4,-1.7697 1.9,-2.7809c-0.5,-0.3034 -0.95,-0.3539 -1.3,0.1011c-0.2,0.2528 -0.45,0.5056 -0.6,0.7585c-0.6,0.8089 -1.15,1.6179 -1.75,2.4775c-0.5,0.7078 -1,1.3651 -1.55,1.9719c-0.15,0.1517 -0.3,0.4045 -0.55,0.4045c-0.75,0.0505 -1.5,0.1517 -2.15,-0.2528c-0.1,-0.354 0,-0.6068 0.2,-0.8596c0.3,-0.455 0.6,-0.8595 0.9,-1.264c0.75,-1.0113 1.55,-2.0731 2.3,-3.0843c0.1,-0.1517 0.25,-0.3034 0.15,-0.5056c-0.85,-0.2023 -3,-0.3539 -4,-0.2528c-1,1.0618 -1.8,2.2753 -2.6,3.4887c-0.6,0.9102 -1.25,1.7697 -2.1,2.4776c-0.8,0 -1.6,0.1517 -2.3,-0.3034c0,-0.1517 0,-0.3034 0.05,-0.4045c0.05,-0.2022 0.15,-0.3539 0.3,-0.5562c0.35,-0.5056 0.75,-1.0618 1.15,-1.5674c0.65,-0.8595 1.3,-1.7191 1.95,-2.6292c0.15,-0.2528 0.3,-0.4551 0.3,-0.7584c-0.35,-0.2023 -0.65,-0.1517 -1,-0.1011c-1.05,1.0617 -1.8,2.2752 -2.6,3.4887c-0.5,0.7079 -1.05,1.4157 -1.65,2.073c-0.15,0.1517 -0.3,0.4045 -0.55,0.4045c-0.75,0.0506 -1.5,0.1517 -2.15,-0.2528c-0.1,-0.4045 0.05,-0.7078 0.25,-0.9606c0.45,-0.6068 0.9,-1.2135 1.35,-1.8203c0.6,-0.8595 1.25,-1.6685 1.85,-2.5281c0.1,-0.1516 0.3,-0.4044 0.1,-0.6573c-1.1,-0.0505 -2.2,-0.1516 -3.35,-0.2022c-0.6,0.9101 -1.2,1.7697 -1.75,2.6292c-0.7,1.0618 -1.35,2.073 -2.2,3.0337c-0.2,0.2023 -0.35,0.5056 -0.65,0.5562c-0.8,0.1011 -1.55,0.2022 -2.25,-0.2528c-0.05,-0.5562 0.25,-0.9101 0.5,-1.2641c0.95,-1.3651 1.95,-2.7809 2.9,-4.146c0.1,-0.1517 0.3,-0.3034 0.15,-0.5562c-0.45,-0.2023 -0.8,-0.1011 -1.15,0.2528c-0.8,0.9607 -1.5,2.0225 -2.2,3.0337c-0.5,0.7584 -1.05,1.4157 -1.6,2.073c-0.2,0.2023 -0.35,0.4551 -0.7,0.4551c-0.7,0 -1.45,0.1011 -2.1,-0.2022c-0.15,-0.5562 0.15,-0.8596 0.4,-1.2135c0.95,-1.3146 1.9,-2.5787 2.9,-3.8933c0.15,-0.2022 0.35,-0.455 0.35,-0.7584c-0.35,-0.1517 -0.7,-0.1517 -1.1,0c-0.3,0.3539 -0.6,0.7079 -0.9,1.0618c-0.55,0.7584 -1.1,1.618 -1.65,2.3764c-0.5,0.6573 -1.05,1.3146 -1.55,1.9719c-0.2,0.2022 -0.4,0.4045 -0.7,0.4045c-0.65,0 -1.35,0.0506 -2,-0.2023c-0.2,-0.5561 0.1,-0.9101 0.4,-1.2134c1,-1.3146 1.95,-2.6293 2.95,-3.9944c-0.2,0 -0.1,-0.1517 -0.15,-0.5056zM275.72173,178.44371c-0.25,0 -0.45,0 -0.65,0c-1.65,-0.1011 -3.25,-0.2023 -4.9,-0.3034c-0.1,0 -0.15,0 -0.25,0c-1.5,-0.3034 -3,-0.2022 -4.5,-0.4045c-1.5,-0.1517 -3,-0.2022 -4.55,-0.3033c-2.8,-0.2023 -5.55,-0.4551 -8.35,-0.6574c-1.85,-0.1516 -3.75,-0.2022 -5.6,-0.3033c-0.1,0 -0.25,0 -0.35,0c-1.35,-0.354 -2.7,-0.2023 -4.05,-0.354c-1.8,-0.2022 -3.65,-0.2528 -5.5,-0.3539c-0.15,0 -0.3,0 -0.5,-0.0505c-1.55,-0.354 -3.2,-0.2023 -4.75,-0.354c-1.8,-0.1517 -3.65,-0.4045 -5.5,-0.3539c-0.15,0 -0.3,0 -0.5,0c-1.35,-0.3034 -2.7,-0.2023 -4.05,-0.3539c-1.9,-0.2023 -3.8,-0.2529 -5.75,-0.354c-0.1,0 -0.15,0 -0.25,0c-1.6,-0.2022 -3.25,-0.3539 -4.9,-0.455c-1.15,-0.1012 -2.3,-0.1012 -3.45,-0.2528c-1.55,-0.2023 -3.1,-0.1517 -4.65,-0.354c-1.9,-0.2022 -3.8,-0.2022 -5.75,-0.3539c-1,-0.1011 -2,-0.2023 -3,-0.2023c-0.25,0 -0.45,-0.1011 -0.7,-0.1516c-0.55,-0.0506 -0.85,-0.4045 -1,-0.9102c-0.2,-0.7584 -0.35,-1.5674 -0.5,-2.3764c-0.1,-0.455 -0.15,-0.9606 -0.35,-1.3651c-0.4,-0.1012 -0.75,-0.2023 -1.1,-0.2023c-1.1,-0.0505 -2.25,-0.1011 -3.35,-0.2528c-1.2,-0.2022 -2.45,-0.3034 -3.65,-0.455c-0.5,-0.0506 -1,-0.1517 -1.55,0c0,1.0112 0.3,1.9213 0.4,2.882c0.1,0.9101 0.35,1.8202 0.45,2.7303c0.1,0.9607 0.4,1.8708 0.6,2.7809c0.25,0.1011 0.45,0.1517 0.65,0.2023c1.6,0.2022 3.25,0.3539 4.85,0.5056c1.7,0.1517 3.4,0.4045 5.1,0.455c2.25,0.0506 4.55,0.3034 6.8,0.4551c2.1,0.1517 4.2,0.3539 6.3,0.4551c1.45,0.1011 2.95,0.2022 4.4,0.3539c1.6,0.1517 3.2,0.2022 4.8,0.3034c0.1,0 0.25,0 0.35,0.0505c1.1,0.3034 2.2,0.2023 3.3,0.3539c2,0.2023 4.05,0.2529 6.1,0.354c0.15,0 0.3,0 0.5,0.0505c1.45,0.1012 2.85,0.2529 4.3,0.354c1.9,0.1517 3.85,0.2022 5.75,0.3033c0.1,0 0.15,0 0.25,0c1.6,0.1517 3.2,0.3034 4.75,0.4045c1.9,0.1012 3.8,0.2023 5.75,0.3034c0.1,0 0.15,0 0.25,0c1.55,0.3539 3.1,0.2528 4.65,0.3539c2.05,0.2023 4.15,0.354 6.2,0.4551c2.25,0.1517 4.45,0.3034 6.65,0.5056c1.2,0.1011 2.4,0.1517 3.6,0.2528c1.6,0.1012 3.2,0.3034 4.75,0.354c0.45,0 0.9,0 1.3,0.0505c2.1,0.2023 4.2,0.4045 6.3,0.4045c0.5,0 1,-0.0505 1.65,-0.1011c-0.25,-1.4663 -0.55,-2.8315 -0.75,-4.2472c-0.2,-1.3652 -0.3,-2.7809 -0.6,-4.1461c-0.25,0 -0.4,0 -0.55,0c-1.25,-0.1011 -2.45,0 -3.7,-0.2022c-0.5,-0.1011 -1.1,-0.2023 -1.65,0.1011c-0.05,1.4157 0.55,2.8315 0.45,4.3989zM274.32173,173.13471c-0.4,-0.0506 -0.75,-0.1517 -1.1,-0.2022c-1.45,-0.1012 -2.85,-0.2023 -4.3,-0.3034c-3.6,-0.2528 -7.15,-0.5056 -10.75,-0.7584c-2.2,-0.1517 -4.4,-0.3034 -6.55,-0.4551c-1.65,-0.1011 -3.25,-0.2022 -4.9,-0.3034c-2.8,-0.2022 -5.55,-0.4045 -8.35,-0.6067c-1.7,-0.1011 -3.45,-0.2023 -5.15,-0.3539c-3.6,-0.2529 -7.15,-0.5057 -10.75,-0.7585c-3.15,-0.2528 -6.3,-0.455 -9.45,-0.7078c-3.6,-0.3034 -7.25,-0.6068 -10.85,-0.8596c-2.05,-0.1517 -4.15,-0.3034 -6.2,-0.455c-0.7,-0.0506 -1.4,-0.1012 -2.2,-0.0506c0.1,1.2135 0.4,2.3258 0.6,3.4382c0.2,0.0506 0.3,0.1011 0.4,0.1011c2.65,0.2023 5.35,0.4045 8,0.6068c2.65,0.2022 5.35,0.3539 8,0.5561c3.05,0.2023 6.05,0.4551 9.1,0.7079c1.4,0.1011 2.8,0.2023 4.2,0.3034c2.7,0.2022 5.4,0.4045 8.1,0.6067c1.55,0.1011 3.1,0.2023 4.65,0.3034c3.1,0.2022 6.2,0.455 9.3,0.7079c1.45,0.1011 2.95,0.2022 4.4,0.3033c2.65,0.2023 5.25,0.4045 7.9,0.6068c2.75,0.2022 5.5,0.3539 8.25,0.5561c1.6,0.1012 3.2,0.2529 4.8,0.4045c1,0.0506 2.05,0.1012 3.05,0.1517c0.05,-1.264 -0.4,-2.2753 -0.2,-3.5393zM297.37173,146.64031c-0.15,0.2528 -0.3,0.4045 -0.4,0.5562c-2.45,4.0955 -4.65,8.2416 -6.85,12.4382c-2.3,4.3483 -4.4,8.7472 -7,12.9438c-0.55,0.8596 -0.85,1.7191 -0.6,2.8315c0.4,1.6685 0.55,3.4382 0.8,5.1573c0.05,0.3034 0.15,0.5562 0.35,0.9101c0.15,-0.2023 0.25,-0.3539 0.35,-0.4551c0.75,-1.5168 1.55,-2.9831 2.3,-4.5c1.75,-3.5898 3.55,-7.1292 5.45,-10.6179c0.75,-1.3652 1.5,-2.6798 2.15,-4.045c1.2,-2.5786 2.65,-5.0562 3.75,-7.6854c0.35,-0.8595 0.65,-1.6685 0.5,-2.5786c-0.2,-1.5169 -0.4,-3.0337 -0.6,-4.5506c0,-0.2022 -0.05,-0.2528 -0.2,-0.4045z" fill="#000000"/><path d="M296.92173,145.02231c-0.15,0.6573 -0.55,1.1124 -0.85,1.5675c-1.6,2.6292 -3.05,5.3089 -4.5,7.9887c-1.1,2.0731 -2.2,4.0955 -3.3,6.1686c-1.4,2.6292 -2.75,5.3089 -4.15,7.9382c-0.8,1.4663 -1.65,2.882 -2.45,4.2472c-0.85,0.1516 -4.3,0 -5.75,-0.2529c-0.1,-0.1516 -0.05,-0.3033 0.05,-0.455c1.2,-2.0225 2.15,-4.1461 3.25,-6.2191c0.5,-0.9607 1.2,-1.8202 1.6,-2.8315c0.1,-0.3033 0.25,-0.6067 0.35,-0.9101c0.15,-0.4045 0,-0.7079 -0.35,-0.9101c-0.3,-0.1517 -0.6,-0.2022 -0.9,-0.2528c-2.7,-0.2023 -5.4,-0.4551 -8.1,-0.6573c-3.3,-0.2023 -6.6,-0.4551 -9.95,-0.5562c-2.25,-0.0506 -4.45,-0.3034 -6.7,-0.4045c-2.55,-0.1517 -5.1,-0.3034 -7.65,-0.4045c-2.85,-0.1517 -5.65,-0.2528 -8.5,-0.3539c-1.7,-0.1011 -3.45,-0.2023 -5.15,-0.3034c-2.25,-0.1517 -4.45,-0.2528 -6.7,-0.3539c-3.35,-0.1517 -6.7,-0.3034 -10.05,-0.4551c-3.1,-0.1517 -6.25,-0.2022 -9.35,-0.3539c-2.25,-0.1011 -4.55,-0.3034 -6.8,-0.4551c-0.2,0 -0.4,0 -0.6,-0.0505c-0.85,-0.1011 -1.35,0.2528 -1.95,0.9101c-2.1,2.3764 -3.95,4.955 -6,7.382c-1.3,1.5674 -1.3,1.5674 -3.25,1.3652c-2.1,-0.2023 -4.2,-0.4551 -6.3,-0.6573c-0.2,0 -0.4,-0.0506 -0.55,-0.3034c0.6,-0.809 1.2,-1.6685 1.85,-2.4775c3.35,-4.2978 6.8,-8.5955 10.35,-12.7416c2.5,-2.9326 4.95,-5.8146 7.3,-8.8483c0.35,-0.4551 0.75,-0.8596 1.1,-1.2641c1.05,-0.1516 2.1,0.0506 3.15,0.1012c3,0.1011 6,0.2528 9,0.4045c2.85,0.1516 5.65,0.2528 8.5,0.4045c2.45,0.1011 4.85,0.2022 7.3,0.3033c4.5,0.2528 9,0.5562 13.5,0.8596c2.2,0.1517 4.4,0.2528 6.6,0.3539c3.6,0.2023 7.2,0.4551 10.75,0.6573c2.05,0.1011 4.05,0.2023 6.1,0.3034c4.85,0.3034 9.65,0.6067 14.5,0.7584c3.45,0.1011 6.85,0.2528 10.3,0.4045c1.4,0.1517 2.8,0.2528 4.3,0.3539zM260.77173,144.66841c-0.15,-0.3034 -0.3,-0.5056 -0.55,-0.5056c-0.45,-0.0506 -0.85,-0.1011 -1.3,-0.1517c-1.45,-0.0506 -2.85,-0.0506 -4.3,-0.1517c-2.15,-0.1011 -4.3,-0.2022 -6.45,-0.3034c-2.8,-0.1011 -5.6,-0.2022 -8.35,-0.3033c-2.55,-0.1011 -5.1,-0.1517 -7.65,-0.2528c-0.3,0 -0.65,-0.0506 -0.95,0.1011c-0.95,1.264 -1.85,2.6292 -2.65,3.9944c-0.95,1.5168 -1.85,3.0337 -2.7,4.5505c-0.55,0.9607 -1.25,1.8708 -1.6,2.9326c-0.1,0.2023 -0.25,0.4551 0,0.7584c0.3,0.2529 0.75,0.2529 1.15,0.3034c1.9,0.1517 3.8,0.3034 5.7,0.5056c2.8,0.354 5.55,0.4551 8.35,0.5562c3.65,0.2023 7.35,0.2528 11,0.4045c0.3,0 0.65,0.0506 0.95,0.0506c0.65,0.0505 1.3,0.0505 1.9,0.0505c0.45,0 0.75,-0.1517 0.9,-0.6067c0.1,-0.3539 0.3,-0.6573 0.45,-0.9607c0.95,-1.9213 2.1,-3.691 3.2,-5.5112c1.05,-1.7191 1.95,-3.6405 2.9,-5.4607zM195.87173,157.41001c-0.15,-0.2528 -0.3,-0.3034 -0.45,-0.3034c-0.7,-0.0506 -1.45,-0.0506 -2.15,-0.2022c-0.85,-0.1517 -1.45,0.2022 -1.95,0.8595c-1.45,1.8708 -2.9,3.7416 -4.35,5.6124c-0.15,0.2022 -0.35,0.455 -0.25,0.809c0.35,0.3033 0.8,0.3539 1.3,0.4045c0.55,0.0505 1.1,0.0505 1.65,0.1516c0.65,0.1012 1.1,-0.0505 1.5,-0.6573c1.4,-1.9213 2.65,-3.9438 4.15,-5.764c0.25,-0.2528 0.5,-0.5562 0.55,-0.9101zM216.42173,155.08411c0.55,0.0506 1.05,-0.1516 1.5,-0.3539c1.1,-0.5562 1.35,-1.9719 0.5,-2.8315c-1.1,-1.1123 -3.7,-0.5561 -4.25,0.9607c-0.3,0.9101 0.05,1.7191 0.95,2.0225c0.45,0.1517 0.9,0.2528 1.3,0.2022zM218.82173,150.53361c0.75,0 1.55,-0.3034 2,-0.7079c0.85,-0.7584 0.8,-1.8202 -0.1,-2.4775c-0.15,-0.1011 -0.3,-0.1517 -0.4,-0.2023c-0.85,-0.3539 -1.7,-0.2022 -2.55,0.0506c-0.6,0.2022 -1.1,0.9607 -1.1,1.618c0,0.6573 0.3,1.1629 0.9,1.4157c0.4,0.1517 0.8,0.3539 1.25,0.3034zM200.02173,150.48301c-0.8,0 -1.45,0.2023 -1.9,0.5562c-0.95,0.809 -0.85,2.1236 0.3,2.6798c0.75,0.3539 1.6,0.455 2.45,0.0505c0.85,-0.3539 1.3,-1.3146 1.1,-2.1741c-0.15,-0.6068 -0.85,-1.0618 -1.65,-1.1124c-0.1,0 -0.2,0 -0.3,0zM208.32173,154.22461c0.85,0.1011 1.55,-0.2023 2.1,-0.8596c0.6,-0.7078 0.55,-1.5168 -0.2,-2.073c-1.15,-0.9101 -3.25,-0.4551 -3.95,0.8596c-0.3,0.5561 -0.25,0.9606 0.2,1.4157c0.5,0.455 1.1,0.7584 1.85,0.6573zM208.27173,143.10101c0,-0.6573 -0.2,-1.0618 -0.65,-1.3146c-0.7,-0.4551 -2.7,-0.2528 -3.35,0.5056c-0.7,0.7584 -0.6,1.8202 0.3,2.3258c0.95,0.5057 2.35,0.354 3.1,-0.4044c0.3,-0.354 0.6,-0.7079 0.6,-1.1124zM202.07173,149.37071c0.85,0 1.85,-0.354 2.35,-0.7585c0.55,-0.455 0.65,-1.3651 0.15,-1.9213c-1,-1.1629 -3.35,-1.0113 -4.25,0.7078c-0.3,0.5562 -0.1,1.2135 0.45,1.5675c0.45,0.3539 0.95,0.4045 1.3,0.4045zM221.47173,145.88191c0.55,-0.1011 1.05,-0.1011 1.55,-0.3034c1.2,-0.4045 1.4,-1.8202 0.45,-2.6292c-0.25,-0.2022 -0.55,-0.3539 -0.85,-0.4045c-0.75,-0.1011 -1.45,0 -2.1,0.2528c-0.3,0.1011 -0.55,0.354 -0.75,0.6068c-0.45,0.6067 -0.4,1.3651 0.2,1.8707c0.45,0.354 1,0.5057 1.5,0.6068zM213.57173,145.47741c0.75,0.0506 1.4,-0.2528 1.9,-0.9101c0.55,-0.7079 0.45,-1.3146 -0.2,-1.9214c-0.25,-0.2022 -0.5,-0.3539 -0.85,-0.455c-0.9,-0.2023 -1.75,0.0505 -2.5,0.5562c-0.15,0.1011 -0.3,0.3033 -0.4,0.455c-0.4,0.6573 -0.3,1.2135 0.25,1.7191c0.55,0.5056 1.1,0.6068 1.8,0.5562zM211.22173,146.33691c-0.8,-0.0505 -1.45,0.2023 -2.05,0.809c-0.8,0.809 -0.6,1.9214 0.45,2.3764c1.1,0.5057 2.6,0.1517 3.35,-0.8089c0.55,-0.7079 0.4,-1.618 -0.4,-2.0225c-0.4,-0.2528 -0.85,-0.354 -1.35,-0.354zM259.32173,154.62911c0.2,0.455 0.6,0.5056 1,0.5562c1.5,0.1516 3,0.2022 4.55,0.2022c0.35,0 0.75,0 1,-0.3539c-0.05,-0.354 -0.25,-0.5056 -0.6,-0.6068c-0.45,-0.1517 -0.85,-0.0505 -1.3,-0.1011c-1.25,-0.1011 -2.45,-0.1011 -3.7,-0.1011c-0.4,-0.0506 -0.75,0 -0.95,0.4045zM276.37173,152.80891c-0.05,-0.354 -0.25,-0.5057 -0.6,-0.6068c-0.45,-0.1517 -0.85,-0.0505 -1.3,-0.1011c-1.25,-0.1011 -2.45,-0.1011 -3.7,-0.1011c-0.35,0 -0.7,0.0505 -0.9,0.455c0.2,0.4551 0.6,0.5056 1,0.5562c1.5,0.1517 3,0.2023 4.55,0.2023c0.35,0 0.7,-0.0506 0.95,-0.4045zM287.82173,150.43251c0.05,-0.2529 0,-0.4551 -0.2,-0.5562c-0.3,-0.1517 -0.6,-0.2528 -0.9,-0.2528c-1.4,-0.0506 -2.8,-0.1517 -4.15,-0.2528c-0.3,0 -0.65,-0.0506 -0.95,0.1011c-0.2,0.1011 -0.4,0.1517 -0.4,0.4045c0.1,0.3033 0.35,0.3539 0.65,0.4045c1.55,0.3033 3.15,0.2022 4.75,0.4045c0.4,0.1011 0.8,-0.0506 1.2,-0.2528zM275.32173,155.53921c0.05,-0.3539 -0.1,-0.5056 -0.3,-0.6067c-0.4,-0.2023 -0.85,-0.2023 -1.3,-0.2529c-1.1,-0.0505 -2.25,-0.0505 -3.35,-0.2022c-0.4,-0.0506 -0.8,0 -1.2,0.0506c-0.2,0.0505 -0.5,0.1011 -0.55,0.4045c0.1,0.4044 0.4,0.4044 0.7,0.455c1.55,0.3034 3.1,0.2023 4.65,0.4045c0.55,0.1011 0.95,-0.0506 1.35,-0.2528zM266.27173,152.70771c0.35,0 0.6,-0.0505 0.9,-0.0505c0.15,0 0.3,-0.1517 0.3,-0.3034c0,-0.1517 -0.1,-0.3034 -0.25,-0.3539c-0.5,-0.2528 -1.05,-0.354 -1.6,-0.4045c-1.25,-0.0506 -2.45,-0.1012 -3.7,-0.2528c-0.25,-0.0506 -0.5,0 -0.7,0.0505c-0.1,0 -0.2,0.1517 -0.25,0.2528c-0.05,0.1517 0,0.3034 0.15,0.4045c0.2,0.1517 0.45,0.2023 0.65,0.2528c1.55,0.1517 3.05,0.3034 4.5,0.4045zM288.82173,147.44931c-0.2,-0.4045 -0.5,-0.5056 -0.8,-0.5056c-1.65,-0.1011 -3.35,-0.2023 -5,-0.2528c-0.2,0 -0.4,0.0505 -0.6,0.1011c-0.15,0.0506 -0.3,0.1517 -0.3,0.3539c0,0.2023 0.15,0.3034 0.3,0.354c0.3,0.1011 0.6,0.1517 0.95,0.2022c0.85,0.1011 1.75,0.1517 2.6,0.2023c0.65,0.0505 1.25,0.0505 1.9,0.0505c0.35,-0.0505 0.75,-0.1011 0.95,-0.5056zM278.52173,149.57291c-0.3,-0.4551 -0.75,-0.5056 -1.2,-0.5562c-0.85,-0.0505 -1.65,-0.1517 -2.5,-0.1517c-0.65,-0.0505 -1.35,-0.0505 -2,-0.0505c-0.3,0 -0.55,0 -0.8,0.1517c-0.1,0.0505 -0.2,0.2022 -0.2,0.2528c0,0.1011 0.1,0.2528 0.15,0.3033c0.3,0.1012 0.6,0.2023 0.9,0.2528c0.9,0.1012 1.8,0.2023 2.7,0.2529c0.65,0.0505 1.25,0.0505 1.9,0.0505c0.45,0 0.8,0 1.05,-0.5056zM284.77173,156.14591c-0.6,-0.455 -0.6,-0.5056 -1.1,-0.5056c-0.65,-0.0505 -1.25,0 -1.9,-0.1011c-0.85,-0.1011 -1.75,-0.1517 -2.6,-0.1517c-0.25,0 -0.55,0.0506 -0.8,0.1011c-0.15,0.0506 -0.3,0.1517 -0.3,0.354c0,0.2022 0.15,0.3033 0.3,0.3539c0.25,0.0506 0.55,0.1517 0.8,0.2022c0.9,0.1012 1.8,0.1517 2.7,0.2529c0.65,0.0505 1.25,0.0505 1.9,0.0505c0.4,-0.1011 0.75,-0.1011 1,-0.5562zM279.47173,153.01111c0.35,0.3539 0.75,0.4045 1.15,0.4045c1.4,0.1011 2.85,0.2022 4.25,0.3034c0.25,0 0.55,0 0.85,-0.0506c0.25,-0.0506 0.45,-0.1517 0.4,-0.455c-0.6,-0.4045 -0.6,-0.4045 -1.15,-0.4551c-0.8,-0.0506 -1.6,-0.1517 -2.35,-0.1517c-0.8,-0.0506 -1.6,-0.0506 -2.4,-0.0506c-0.3,-0.1011 -0.65,-0.0505 -0.75,0.4551zM264.17173,145.83131c-0.1,0.2528 -0.1,0.5056 0.2,0.6068c0.25,0.1011 0.5,0.2022 0.8,0.2528c1.55,0.1517 3.1,0.2528 4.65,0.3539c0.25,0 0.55,0 0.8,-0.2022c0.05,-0.2023 0,-0.4045 -0.2,-0.5057c-0.35,-0.2022 -0.75,-0.3033 -1.15,-0.3539c-1.45,-0.1011 -2.95,-0.2022 -4.4,-0.3034c-0.25,-0.1011 -0.5,-0.0505 -0.7,0.1517zM273.02173,146.64031c0.05,0.2528 0.15,0.4045 0.3,0.4551c0.35,0.1517 0.75,0.2528 1.15,0.2528c1.35,0.0505 2.7,0.0505 4.05,0.1011c0.25,0 0.5,-0.0506 0.7,-0.1011c0.1,0 0.2,-0.1517 0.25,-0.2528c0.1,-0.1517 0,-0.3034 -0.15,-0.4045c-0.35,-0.2528 -0.7,-0.3034 -1.15,-0.3034c-1.35,-0.0506 -2.7,-0.1011 -4.05,-0.1517c-0.4,0.0506 -0.75,0.1011 -1.1,0.4045zM262.37173,148.91561c0.4,0.5562 0.95,0.6067 1.45,0.6573c1.4,0.0506 2.75,0.0506 4.15,0.1011c0.25,0 0.45,-0.0505 0.7,-0.1011c0.1,-0.0506 0.2,-0.1517 0.2,-0.2528c0,-0.1011 -0.05,-0.2528 -0.1,-0.3034c-0.3,-0.3033 -0.7,-0.3033 -1.1,-0.3539c-1.4,-0.0506 -2.8,0.0506 -4.15,-0.1517c-0.4,-0.1011 -0.75,0 -1.15,0.4045z" fill="#87d7dc"/><path d="M212.52173,158.62351c0.05,0.3539 -0.05,0.5056 -0.2,0.7078c-1,1.3146 -1.95,2.6292 -2.95,3.9944c-0.25,0.3539 -0.6,0.7079 -0.4,1.2135c0.65,0.2528 1.3,0.1517 2,0.2022c0.3,0 0.55,-0.1516 0.7,-0.4045c0.55,-0.6573 1.05,-1.3146 1.55,-1.9719c0.55,-0.7584 1.1,-1.5674 1.65,-2.3764c0.3,-0.4045 0.6,-0.7584 0.9,-1.0618c0.4,-0.1011 0.75,-0.1517 1.1,0c0,0.3034 -0.15,0.5057 -0.35,0.7585c-0.95,1.264 -1.9,2.5786 -2.9,3.8932c-0.25,0.354 -0.55,0.7079 -0.4,1.2135c0.7,0.2528 1.4,0.2022 2.1,0.2022c0.3,0 0.5,-0.2528 0.7,-0.455c0.6,-0.6573 1.15,-1.3652 1.6,-2.073c0.7,-1.0113 1.4,-2.0731 2.2,-3.0337c0.35,-0.4045 0.7,-0.4551 1.15,-0.2529c0.1,0.2529 -0.05,0.4045 -0.15,0.5562c-0.95,1.3652 -1.95,2.7809 -2.9,4.1461c-0.25,0.3539 -0.55,0.7079 -0.5,1.264c0.7,0.4551 1.5,0.354 2.25,0.2528c0.3,-0.0505 0.45,-0.3539 0.65,-0.5561c0.85,-0.9101 1.55,-1.9719 2.2,-3.0337c0.55,-0.8596 1.15,-1.7191 1.75,-2.6293c1.15,0.0506 2.25,0.1517 3.35,0.2023c0.2,0.3034 0,0.5056 -0.1,0.6573c-0.6,0.8595 -1.25,1.6685 -1.85,2.5281c-0.45,0.6067 -0.9,1.2135 -1.35,1.8202c-0.2,0.2528 -0.35,0.5562 -0.25,0.9607c0.65,0.4045 1.45,0.3034 2.15,0.2528c0.25,0 0.4,-0.2528 0.55,-0.4045c0.6,-0.6573 1.15,-1.3652 1.65,-2.073c0.8,-1.2135 1.6,-2.427 2.6,-3.4888c0.35,-0.1011 0.65,-0.1011 1,0.1011c0,0.3034 -0.15,0.5562 -0.3,0.7584c-0.65,0.8596 -1.3,1.7192 -1.95,2.6293c-0.4,0.5056 -0.75,1.0112 -1.15,1.5674c-0.1,0.1517 -0.2,0.3539 -0.3,0.5562c-0.05,0.1011 0,0.2528 -0.05,0.4045c0.75,0.455 1.55,0.3033 2.3,0.3033c0.85,-0.7078 1.45,-1.618 2.1,-2.4775c0.8,-1.2135 1.6,-2.427 2.6,-3.4888c1,-0.1011 3.15,0 4,0.2528c0.1,0.2023 0,0.354 -0.15,0.5057c-0.75,1.0112 -1.55,2.073 -2.3,3.0842c-0.3,0.4045 -0.6,0.8596 -0.9,1.2641c-0.15,0.2528 -0.3,0.5056 -0.2,0.8595c0.65,0.354 1.45,0.3034 2.15,0.2528c0.25,0 0.4,-0.2528 0.55,-0.4045c0.6,-0.6067 1.1,-1.264 1.55,-1.9719c0.55,-0.809 1.15,-1.6685 1.75,-2.4775c0.2,-0.2528 0.4,-0.5056 0.6,-0.7584c0.4,-0.4551 0.8,-0.4045 1.3,-0.1012c-0.55,1.0618 -1.25,1.9214 -1.9,2.7809c-0.65,0.9102 -1.45,1.7191 -1.85,2.8315c0.8,0.5056 1.6,0.4045 2.35,0.3034c0.2,0 0.4,-0.2528 0.55,-0.4551c0.6,-0.6067 1.1,-1.3146 1.55,-1.9719c0.55,-0.809 1.1,-1.5674 1.65,-2.3764c0.2,-0.2528 0.4,-0.5056 0.6,-0.7584c0.3,-0.4045 0.7,-0.4551 1.15,-0.3034c0.2,0.2528 0.05,0.4551 -0.1,0.6573c-0.65,0.8596 -1.3,1.7697 -1.95,2.6292c-0.45,0.6068 -0.85,1.1629 -1.3,1.7697c-0.25,0.3539 -0.2,0.3539 -0.2,1.0112c0.6,0.2023 1.25,0.1517 1.9,0.1517c0.35,0 0.6,-0.2022 0.8,-0.455c0.6,-0.6573 1.15,-1.3652 1.65,-2.0731c0.8,-1.2135 1.6,-2.4269 2.65,-3.5393c1.3,-0.1011 2.6,0.1011 3.95,0.2022c0,0.4045 -0.15,0.6573 -0.3,0.8596c-0.65,0.8595 -1.3,1.7191 -1.95,2.6292c-0.4,0.5056 -0.75,1.0112 -1.15,1.5674c-0.2,0.2528 -0.35,0.5562 -0.25,0.9607c0.65,0.4045 1.45,0.3034 2.15,0.2528c0.25,0 0.4,-0.2528 0.55,-0.4045c0.6,-0.6573 1.15,-1.3652 1.65,-2.073c0.8,-1.2135 1.6,-2.427 2.6,-3.4888c0.3,-0.0505 0.65,-0.1517 1,0.0506c0,0.3033 -0.15,0.5562 -0.3,0.7584c-0.65,0.8596 -1.3,1.7191 -1.95,2.6292c-0.4,0.5056 -0.75,1.0113 -1.15,1.5674c-0.2,0.2528 -0.35,0.5562 -0.3,0.9607c0.7,0.4551 1.5,0.3539 2.25,0.2528c0.2,0 0.4,-0.2528 0.55,-0.455c0.6,-0.6573 1.15,-1.3652 1.65,-2.0731c0.8,-1.2135 1.6,-2.4269 2.65,-3.5393c0.9,0.0506 1.85,0.1011 2.8,0.1011c0.15,0.4045 -0.1,0.6573 -0.25,0.9101c-0.6,0.8596 -1.25,1.6686 -1.9,2.5281c-0.45,0.5562 -0.85,1.1629 -1.3,1.7697c-0.2,0.2528 -0.35,0.5562 -0.15,0.9607c0.65,0.2528 1.35,0.2022 2.1,0.1516c0.3,0 0.5,-0.2528 0.65,-0.455c0.55,-0.6573 1.05,-1.3146 1.55,-2.0225c0.85,-1.2135 1.65,-2.4775 2.7,-3.5899c0.3,-0.1011 0.6,-0.0505 0.9,0c0.05,0.1012 0.1,0.2023 0.1,0.2528c-0.05,0.3034 -0.2,0.5057 -0.4,0.7585c-0.95,1.264 -1.9,2.5786 -2.9,3.8932c-0.25,0.354 -0.55,0.7079 -0.4,1.2135c0.7,0.2528 1.4,0.2023 2.1,0.2023c0.3,0 0.5,-0.2529 0.65,-0.4551c0.55,-0.6573 1.05,-1.3146 1.55,-2.0225c0.85,-1.2135 1.65,-2.4775 2.7,-3.5393c0.25,-0.1011 0.55,-0.1011 0.8,0.0506c0.15,0.3539 -0.05,0.6067 -0.2,0.8595c-0.6,0.809 -1.2,1.618 -1.8,2.427c-0.45,0.5562 -0.85,1.1629 -1.3,1.7191c-0.2,0.3034 -0.4,0.6067 -0.3,1.0618c0.65,0.3539 1.35,0.2528 2.05,0.2528c0.3,0 0.5,-0.2528 0.7,-0.4551c0.6,-0.6573 1.15,-1.3651 1.65,-2.073c0.8,-1.2135 1.6,-2.427 2.65,-3.4888c0.7,0.0506 1.45,0 2.25,0.2023c0,0.5056 -0.25,0.8595 -0.45,1.2135c-1.55,2.7809 -3.15,5.5112 -4.75,8.2921c-1.55,0.1011 -3.05,-0.2022 -4.55,-0.2528c-1.65,-0.1011 -3.35,-0.2528 -5,-0.4045c-2.9,-0.2022 -5.8,-0.4551 -8.7,-0.6573c-1.85,-0.1517 -3.75,-0.2528 -5.6,-0.3539c-3.05,-0.2023 -6.05,-0.4551 -9.1,-0.6573c-1.85,-0.1012 -3.65,-0.2023 -5.5,-0.354c-1.55,-0.1011 -3.1,-0.2528 -4.65,-0.3539c-1.7,-0.1011 -3.45,-0.2023 -5.15,-0.3539c-2.05,-0.1517 -4.05,-0.2528 -6.1,-0.4045c-3.3,-0.2528 -6.6,-0.5057 -9.9,-0.7585c-2.85,-0.2022 -5.65,-0.455 -8.5,-0.6573c-2,-0.1516 -4,-0.2528 -6,-0.4045c-0.65,-0.0505 -1.35,-0.0505 -1.95,-0.2528c0,-0.3539 0.15,-0.6067 0.35,-0.809c1.45,-1.4662 2.6,-3.1853 3.85,-4.8033c0.5,-0.6068 0.95,-1.1629 1.45,-1.7697c0.25,-0.3539 0.55,-0.5562 1.05,-0.4045c0.35,0.1011 0.75,0.1011 1.15,0.1517c0.05,0.2528 0,0.4551 -0.15,0.6067c-0.65,0.8596 -1.25,1.6686 -1.9,2.5281c-0.45,0.5562 -0.85,1.163 -1.3,1.7697c-0.2,0.2528 -0.35,0.5562 -0.2,0.9607c0.65,0.2528 1.4,0.2022 2.15,0.1517c0.25,0 0.4,-0.2023 0.55,-0.4045c0.5,-0.6068 1.05,-1.2135 1.5,-1.8708c0.9,-1.2641 1.7,-2.5787 2.8,-3.7416c0.35,-0.1011 0.8,-0.0506 1.25,0.0506c0.1,0.3033 -0.05,0.455 -0.2,0.6067c-0.75,1.0112 -1.5,2.0225 -2.25,2.9832c-0.4,0.5056 -0.75,1.0112 -1.15,1.5674c-0.2,0.2528 -0.15,0.2528 -0.2,0.9606c0.7,0.2528 1.4,0.2023 2.1,0.1517c0.3,0 0.5,-0.2528 0.65,-0.455c0.55,-0.6573 1.05,-1.3146 1.55,-2.0225c0.75,-1.1124 1.55,-2.1742 2.35,-3.1854c0.3,-0.4045 0.65,-0.5562 1.15,-0.5056c0.95,-0.2023 1.5,-0.1517 2.05,-0.1011z" fill="#ffffff"/><path d="M275.72173,178.44371c0.1,-1.5674 -0.45,-2.9832 -0.25,-4.4495c0.55,-0.3033 1.1,-0.1516 1.65,-0.1011c1.25,0.2023 2.45,0.1011 3.7,0.2023c0.15,0 0.3,0 0.55,0c0.3,1.4157 0.45,2.7809 0.6,4.146c0.2,1.3652 0.45,2.7304 0.75,4.2472c-0.6,0.0506 -1.1,0.0506 -1.65,0.1012c-2.1,0 -4.2,-0.2023 -6.3,-0.4045c-0.45,-0.0506 -0.9,-0.0506 -1.3,-0.0506c-1.6,-0.0506 -3.2,-0.2528 -4.75,-0.3539c-1.2,-0.0506 -2.4,-0.1012 -3.6,-0.2528c-2.2,-0.2023 -4.45,-0.354 -6.65,-0.5057c-2.05,-0.1516 -4.15,-0.3033 -6.2,-0.455c-1.55,-0.1517 -3.1,-0.0506 -4.65,-0.3539c-0.1,0 -0.15,0 -0.25,0c-1.9,-0.1012 -3.85,-0.2023 -5.75,-0.3034c-1.6,-0.1011 -3.2,-0.2528 -4.75,-0.4045c-0.1,0 -0.15,0 -0.25,0c-1.9,-0.1011 -3.85,-0.2023 -5.75,-0.3034c-1.45,-0.1011 -2.85,-0.2528 -4.3,-0.3539c-0.15,0 -0.3,0 -0.5,-0.0506c-2.05,-0.1011 -4.05,-0.1517 -6.1,-0.3539c-1.1,-0.1011 -2.25,-0.0506 -3.3,-0.3539c-0.1,-0.0506 -0.25,0 -0.35,-0.0506c-1.6,-0.1011 -3.2,-0.1517 -4.8,-0.3034c-1.45,-0.1517 -2.95,-0.2528 -4.4,-0.3539c-2.1,-0.1517 -4.2,-0.3539 -6.3,-0.4551c-2.25,-0.1517 -4.5,-0.3539 -6.8,-0.455c-1.7,-0.0506 -3.4,-0.2528 -5.1,-0.4551c-1.65,-0.1517 -3.25,-0.3539 -4.85,-0.5056c-0.2,0 -0.4,-0.1011 -0.65,-0.2022c-0.2,-0.9102 -0.45,-1.8203 -0.6,-2.7809c-0.1,-0.9102 -0.35,-1.8203 -0.45,-2.7304c-0.1,-0.9607 -0.45,-1.8708 -0.4,-2.882c0.55,-0.1517 1.05,-0.0506 1.55,0c1.25,0.1517 2.45,0.3034 3.65,0.4551c1.1,0.1516 2.2,0.2022 3.35,0.2528c0.35,0 0.7,0.1516 1.1,0.2022c0.2,0.4551 0.3,0.9101 0.35,1.3652c0.15,0.809 0.3,1.5674 0.5,2.3764c0.1,0.5056 0.4,0.8595 1,0.9101c0.25,0 0.45,0.1011 0.7,0.1517c1,0.0505 2,0.1517 3,0.2022c1.9,0.1517 3.85,0.1517 5.75,0.354c1.55,0.2022 3.1,0.1516 4.65,0.3539c1.15,0.1517 2.3,0.2022 3.45,0.2528c1.65,0.1011 3.25,0.2528 4.9,0.4551c0.1,0 0.15,0 0.25,0c1.9,0.1011 3.85,0.1516 5.75,0.3539c1.35,0.1517 2.7,0.0506 4.05,0.3539c0.15,0.0506 0.3,0.0506 0.5,0c1.85,-0.0505 3.65,0.1517 5.5,0.354c1.6,0.1516 3.2,0.0505 4.75,0.3539c0.15,0.0506 0.3,0 0.5,0.0506c1.85,0.1011 3.7,0.1011 5.5,0.3539c1.35,0.1517 2.7,0.0505 4.05,0.3539c0.1,0.0506 0.25,0 0.35,0c1.85,0.1011 3.75,0.2023 5.6,0.3034c2.8,0.2022 5.55,0.455 8.35,0.6573c1.5,0.1011 3.05,0.1517 4.55,0.3034c1.5,0.1516 3.05,0.1011 4.5,0.4045c0.1,0 0.15,0 0.25,0c1.65,0.1011 3.25,0.2022 4.9,0.3033c-0.05,0.0506 0.15,0.0506 0.45,0.0506z" fill="#498d91"/><path d="M274.32173,173.13471c-0.25,1.264 0.25,2.2753 0.2,3.4888c-1,-0.0506 -2.05,-0.0506 -3.05,-0.1517c-1.6,-0.1011 -3.2,-0.2528 -4.8,-0.4045c-2.75,-0.2023 -5.5,-0.3539 -8.25,-0.5562c-2.65,-0.2022 -5.25,-0.4045 -7.9,-0.6067c-1.45,-0.1012 -2.95,-0.2023 -4.4,-0.3034c-3.1,-0.2528 -6.2,-0.4551 -9.3,-0.7079c-1.55,-0.1011 -3.1,-0.2022 -4.65,-0.3033c-2.7,-0.2023 -5.4,-0.4045 -8.1,-0.6068c-1.4,-0.1011 -2.8,-0.2022 -4.2,-0.3034c-3.05,-0.2022 -6.05,-0.455 -9.1,-0.7078c-2.65,-0.2023 -5.35,-0.354 -8,-0.5562c-2.65,-0.2022 -5.35,-0.4045 -8,-0.6067c-0.1,0 -0.25,-0.0506 -0.4,-0.1012c-0.2,-1.1123 -0.5,-2.2247 -0.6,-3.4382c0.8,-0.0505 1.5,0 2.2,0.0506c2.05,0.1517 4.15,0.3034 6.2,0.455c3.6,0.3034 7.25,0.6068 10.85,0.8596c3.15,0.2528 6.3,0.5056 9.45,0.7079c3.6,0.2528 7.15,0.5056 10.75,0.7584c1.7,0.1011 3.45,0.2022 5.15,0.3539c2.8,0.2023 5.55,0.4045 8.35,0.6068c1.65,0.1011 3.25,0.2022 4.9,0.3033c2.2,0.1517 4.4,0.3034 6.55,0.4551c3.6,0.2528 7.15,0.5056 10.75,0.7584c1.45,0.1011 2.85,0.2023 4.3,0.3034c0.35,0.1011 0.7,0.2022 1.1,0.2528z" fill="#d0e9ea"/><path d="M297.37173,146.64031c0.15,0.2023 0.2,0.2528 0.2,0.3034c0.2,1.5168 0.4,3.0337 0.6,4.5505c0.1,0.9102 -0.15,1.7192 -0.5,2.5787c-1.05,2.6798 -2.55,5.1067 -3.75,7.6854c-0.65,1.3652 -1.4,2.7303 -2.15,4.0449c-1.9,3.4888 -3.7,7.0281 -5.45,10.618c-0.75,1.5169 -1.55,3.0337 -2.3,4.5c-0.05,0.1517 -0.2,0.2528 -0.35,0.4551c-0.2,-0.3034 -0.3,-0.6068 -0.35,-0.9101c-0.25,-1.7191 -0.45,-3.4382 -0.8,-5.1573c-0.25,-1.1124 0.05,-1.9214 0.6,-2.8315c2.55,-4.1966 4.7,-8.5955 7,-12.9438c2.2,-4.1967 4.45,-8.3933 6.85,-12.4382c0.1,-0.1012 0.25,-0.2528 0.4,-0.4551z" fill="#61afb4"/><path d="M260.77173,144.66841c-0.95,1.8202 -1.85,3.691 -2.9,5.4607c-1.1,1.8202 -2.25,3.6404 -3.2,5.5112c-0.15,0.3034 -0.35,0.6573 -0.45,0.9607c-0.15,0.455 -0.45,0.6573 -0.9,0.6067c-0.65,0 -1.3,-0.0505 -1.9,-0.0505c-0.3,0 -0.65,-0.0506 -0.95,-0.0506c-3.65,-0.1011 -7.35,-0.2022 -11,-0.4045c-2.8,-0.1517 -5.6,-0.2528 -8.35,-0.5562c-1.9,-0.2022 -3.8,-0.3539 -5.7,-0.5056c-0.45,-0.0505 -0.9,-0.0505 -1.15,-0.3034c-0.2,-0.3539 -0.05,-0.5561 0,-0.7584c0.4,-1.0618 1.05,-1.9719 1.6,-2.9326c0.85,-1.5674 1.8,-3.0337 2.7,-4.5505c0.85,-1.3652 1.7,-2.7304 2.65,-3.9944c0.3,-0.2023 0.65,-0.1517 0.95,-0.1011c2.55,0.1011 5.1,0.1517 7.65,0.2528c2.8,0.1011 5.6,0.2022 8.35,0.3033c2.15,0.1012 4.3,0.2023 6.45,0.3034c1.45,0.0506 2.85,0.1011 4.3,0.1517c0.45,0 0.85,0.1011 1.3,0.1517c0.25,0.0506 0.4,0.2022 0.55,0.5056zM237.17173,155.53921c1,0.1517 1.95,0.1517 2.95,0.1011c0.3,0 0.65,0.0506 0.95,0.0506c1.7,0.1011 3.45,0.1011 5.15,0.3033c2,0.2023 4,0.0506 5.95,0.2529c0.45,0.0505 0.95,-0.1012 1.15,-0.6573c0.2,-0.4551 0.5,-0.809 0.75,-1.2135c1.4,-2.427 2.75,-4.8034 4.15,-7.2304c0.3,-0.5561 0.75,-1.1123 0.85,-1.9213c-1.6,0.0505 -3.05,-0.3539 -4.6,-0.2023c-1.2,-0.2022 -2.4,-0.0505 -3.65,-0.1516c-0.95,-0.1517 -1.85,-0.1012 -2.8,-0.0506c-1.45,-0.0506 -2.95,-0.1517 -4.4,-0.2023c-0.1,0 -0.25,-0.0505 -0.35,-0.0505c-2.7,-0.1011 -5.4,-0.2023 -8.15,-0.3034c-0.3,0 -0.65,-0.0505 -0.95,-0.1011c-0.8,-0.1011 -1.6,-0.1517 -2.35,-0.1011c-1.75,2.4775 -5.8,9.2022 -6.4,10.6179c1.35,0.354 2.7,0.2529 4.05,0.3034c0.1,0.0506 0.2,0.1517 0.3,0.1517c1.3,0.1011 2.55,0.1517 3.85,0.2528c1.25,0 2.4,0.0506 3.55,0.1517z" fill="#010201"/><path d="M195.87173,157.41001c-0.1,0.3539 -0.3,0.6573 -0.5,0.9607c-1.5,1.8202 -2.75,3.8427 -4.15,5.764c-0.45,0.5562 -0.85,0.7584 -1.5,0.6573c-0.55,-0.1011 -1.1,-0.1011 -1.65,-0.1517c-0.5,-0.0505 -0.95,-0.1011 -1.3,-0.4045c-0.1,-0.4045 0.1,-0.6067 0.25,-0.809c1.45,-1.8708 2.9,-3.7415 4.35,-5.6123c0.5,-0.6573 1.1,-1.0113 1.95,-0.8596c0.7,0.1011 1.45,0.1517 2.15,0.2023c0.1,-0.0506 0.25,0 0.4,0.2528zM192.92173,159.98861c0.4,-0.7078 1.05,-1.1629 1.35,-1.9719c-0.4,-0.2528 -0.75,-0.2022 -1.1,-0.1011c-0.4,0.5056 -0.8,0.9607 -1.2,1.4157c-0.05,0.1012 -0.05,0.2023 -0.1,0.354c0.35,0.1011 0.65,0.1516 1.05,0.3033zM192.12173,160.79761c-0.55,-0.0505 -1.05,-0.1517 -1.6,-0.2022c-0.35,0.3033 -0.6,0.6067 -0.8,1.0618c0.65,0.0505 1.25,0.1517 1.9,0.2022c0.2,-0.3539 0.5,-0.6067 0.5,-1.0618zM190.57173,163.02231c-1.25,-0.1516 -1.25,-0.1516 -1.5,0.6068c0.6,0.0505 1.2,0.2528 1.5,-0.6068z" fill="#020202"/><path d="M216.42173,155.08411c-0.4,0.0506 -0.85,-0.0505 -1.25,-0.2022c-0.9,-0.3034 -1.25,-1.1124 -0.95,-2.0225c0.55,-1.5168 3.15,-2.073 4.25,-0.9607c0.85,0.8596 0.6,2.2753 -0.5,2.8315c-0.5,0.2528 -1,0.4045 -1.55,0.3539zM216.57173,153.97181c0.5,0 0.8,-0.1011 1.05,-0.4045c0.25,-0.2528 0.2,-0.6068 -0.05,-0.809c-0.45,-0.4551 -1.8,-0.2023 -2.1,0.1517c-0.25,0.2528 -0.2,0.6573 0.1,0.809c0.3,0.1517 0.65,0.2528 1,0.2528z" fill="#030606"/><path d="M218.82173,150.53361c-0.4,0.0505 -0.8,-0.1517 -1.2,-0.3034c-0.6,-0.2528 -0.9,-0.7584 -0.9,-1.4157c0,-0.6573 0.5,-1.4158 1.1,-1.618c0.85,-0.2528 1.7,-0.4551 2.55,-0.0506c0.15,0.0506 0.3,0.1012 0.4,0.2023c0.9,0.6573 0.9,1.7191 0.1,2.4775c-0.5,0.4045 -1.35,0.7079 -2.05,0.7079zM217.92173,149.26951c0.25,0.1012 0.55,0.2023 0.85,0.2528c0.5,0.1012 0.95,-0.0505 1.3,-0.4045c0.3,-0.2528 0.2,-0.7078 -0.1,-0.9101c-0.55,-0.3539 -1.1,-0.3033 -1.7,-0.0505c-0.45,0.2022 -0.5,0.3033 -0.35,1.1123z" fill="#040605"/><path d="M200.02173,150.48301c0.1,0 0.15,0 0.25,0c0.85,0.0506 1.55,0.5056 1.65,1.1124c0.2,0.9101 -0.25,1.8202 -1.1,2.1741c-0.8,0.354 -1.65,0.3034 -2.45,-0.0505c-1.1,-0.5562 -1.25,-1.8708 -0.3,-2.6798c0.5,-0.3539 1.15,-0.5562 1.95,-0.5562zM199.77173,152.91001c0.25,0 0.55,-0.1517 0.8,-0.354c0.35,-0.3033 0.3,-0.8089 -0.15,-0.9606c-0.25,-0.1012 -0.55,-0.1517 -0.8,-0.1517c-0.55,0.0505 -1,0.455 -1,0.8595c0.05,0.354 0.6,0.6573 1.15,0.6068z" fill="#040505"/><path d="M208.32173,154.22461c-0.75,0.1011 -1.35,-0.2023 -1.85,-0.7079c-0.45,-0.4045 -0.5,-0.8595 -0.2,-1.4157c0.7,-1.3146 2.8,-1.7697 3.95,-0.8596c0.7,0.5562 0.8,1.3652 0.2,2.0731c-0.6,0.7078 -1.3,1.0112 -2.1,0.9101zM209.62173,152.50551c-0.25,-0.5056 -0.6,-0.7079 -1.05,-0.7079c-0.5,0 -0.95,0.1517 -1.25,0.5562c-0.2,0.2528 -0.05,0.7079 0.25,0.7584c0.75,0.2023 1.5,0.2023 2.05,-0.6067z" fill="#030604"/><path d="M208.27173,143.10101c0.05,0.4045 -0.25,0.7584 -0.6,1.1124c-0.8,0.7584 -2.2,0.9101 -3.1,0.4044c-0.9,-0.5056 -1,-1.5674 -0.3,-2.3258c0.65,-0.7079 2.65,-0.9101 3.35,-0.5056c0.4,0.2528 0.6,0.6573 0.65,1.3146zM207.07173,142.94931c-0.25,-0.4551 -0.65,-0.4045 -1.05,-0.4045c-0.4,0 -0.7,0.1011 -1,0.3539c-0.1,0.1012 -0.15,0.2023 -0.2,0.3034c-0.05,0.1517 0,0.3539 0.15,0.4045c0.4,0.2528 0.85,0.1517 1.25,0.1011c0.45,-0.0505 0.75,-0.3033 0.85,-0.7584z" fill="#030506"/><path d="M202.07173,149.37071c-0.35,0 -0.85,-0.1012 -1.3,-0.4045c-0.55,-0.4045 -0.75,-1.0113 -0.45,-1.5675c0.9,-1.7191 3.25,-1.8707 4.25,-0.7078c0.5,0.5562 0.4,1.4663 -0.15,1.9213c-0.5,0.4045 -1.5,0.7585 -2.35,0.7585zM201.27173,147.90441c1,0.7078 1.6,0.6067 2.5,-0.4045c-0.4,-0.6068 -0.5,-0.6573 -1.1,-0.6573c-0.7,0.0505 -1.15,0.3539 -1.4,1.0618z" fill="#050504"/><path d="M221.47173,145.88191c-0.55,-0.1011 -1.1,-0.2528 -1.5,-0.6573c-0.55,-0.4551 -0.65,-1.2641 -0.2,-1.8708c0.2,-0.2528 0.45,-0.4551 0.75,-0.6067c0.7,-0.2529 1.4,-0.354 2.1,-0.2529c0.3,0.0506 0.6,0.2023 0.85,0.4045c0.95,0.809 0.7,2.2248 -0.45,2.6293c-0.5,0.2528 -1,0.2528 -1.55,0.3539zM220.47173,144.26391c0.7,0.5562 1.25,0.6068 2,0.3034c0.2,-0.1011 0.45,-0.2023 0.4,-0.5056c0,-0.2528 -0.2,-0.4551 -0.45,-0.5057c-0.4,-0.1516 -0.8,-0.1011 -1.15,0c-0.35,0.1012 -0.7,0.2529 -0.8,0.7079z" fill="#050304"/><path d="M213.57173,145.47741c-0.7,0 -1.25,-0.1011 -1.75,-0.5056c-0.55,-0.5056 -0.65,-1.0618 -0.25,-1.7191c0.1,-0.1517 0.25,-0.354 0.4,-0.4551c0.75,-0.5056 1.55,-0.7584 2.5,-0.5562c0.3,0.1012 0.6,0.2528 0.85,0.4551c0.65,0.5562 0.75,1.2135 0.2,1.9213c-0.55,0.6573 -1.2,0.9102 -1.95,0.8596zM212.32173,143.91001c0.5,0.5056 0.6,0.5056 1,0.5562c0.4,0 0.8,-0.1012 1.1,-0.3034c0.3,-0.2023 0.2,-0.6068 -0.1,-0.7584c-0.4,-0.2023 -0.8,-0.1012 -1.15,0c-0.35,0.0505 -0.75,0.1011 -0.85,0.5056z" fill="#040405"/><path d="M211.22173,146.33691c0.5,-0.0505 0.95,0.1012 1.4,0.354c0.8,0.4045 0.95,1.3146 0.4,2.0225c-0.75,0.9606 -2.25,1.3146 -3.35,0.8089c-1.05,-0.455 -1.25,-1.5674 -0.45,-2.3764c0.5,-0.5561 1.2,-0.809 2,-0.809zM212.22173,147.80321c-0.6,-0.455 -0.7,-0.455 -1.2,-0.455c-0.45,0 -0.85,0.2022 -1.15,0.5056c-0.25,0.2528 -0.2,0.6067 0.1,0.809c0.4,0.2528 0.85,0.2528 1.25,0.1517c0.45,-0.2023 0.85,-0.4045 1,-1.0113z" fill="#040506"/><path d="M259.32173,154.62911c0.2,-0.4045 0.55,-0.4551 0.9,-0.4551c1.25,0.0506 2.45,0.0506 3.7,0.1011c0.45,0.0506 0.85,-0.0505 1.3,0.1012c0.35,0.1011 0.55,0.2528 0.6,0.6067c-0.25,0.3539 -0.65,0.3539 -1,0.3539c-1.5,0 -3.05,-0.0505 -4.55,-0.2022c-0.35,0 -0.75,-0.0506 -0.95,-0.5056z" fill="#0c1212"/><path d="M276.37173,152.80891c-0.25,0.3539 -0.65,0.3539 -1,0.3539c-1.5,0 -3.05,0 -4.55,-0.2023c-0.4,-0.0505 -0.8,-0.1011 -1,-0.5561c0.2,-0.4045 0.55,-0.4551 0.9,-0.4551c1.25,0.0506 2.45,0.0506 3.7,0.1011c0.45,0.0506 0.85,-0.0505 1.3,0.1012c0.4,0.1516 0.65,0.3033 0.65,0.6573z" fill="#0d1313"/><path d="M287.82173,150.43251c-0.35,0.2022 -0.8,0.3539 -1.2,0.3033c-1.6,-0.2022 -3.2,-0.1011 -4.75,-0.4045c-0.3,-0.0505 -0.55,-0.1011 -0.65,-0.4045c0,-0.2528 0.2,-0.3033 0.4,-0.4045c0.3,-0.1516 0.65,-0.1011 0.95,-0.1011c1.4,0.0506 2.8,0.1517 4.15,0.2528c0.35,0 0.6,0.1011 0.9,0.2528c0.15,0.0506 0.25,0.2023 0.2,0.5057z" fill="#090c0d"/><path d="M275.32173,155.53921c-0.4,0.2022 -0.85,0.3539 -1.3,0.3034c-1.55,-0.2023 -3.1,-0.1012 -4.65,-0.4045c-0.3,-0.0506 -0.65,-0.0506 -0.7,-0.4551c0.05,-0.3034 0.35,-0.3539 0.55,-0.4045c0.4,-0.0505 0.8,-0.1011 1.2,-0.0505c1.1,0.1516 2.2,0.1516 3.35,0.2022c0.45,0 0.85,0.0506 1.3,0.2528c0.15,0.0506 0.3,0.2023 0.25,0.5562z" fill="#090d0e"/><path d="M266.27173,152.70771c-1.45,-0.1517 -2.95,-0.3033 -4.45,-0.455c-0.25,0 -0.5,-0.0506 -0.65,-0.2528c-0.15,-0.1012 -0.2,-0.2528 -0.15,-0.4045c0.05,-0.1012 0.15,-0.2528 0.25,-0.2528c0.25,-0.0506 0.5,-0.1012 0.7,-0.0506c1.25,0.2022 2.45,0.2022 3.7,0.2528c0.55,0.0506 1.1,0.1517 1.6,0.4045c0.15,0.1011 0.25,0.2023 0.25,0.3539c0,0.1517 -0.15,0.3034 -0.3,0.3034c-0.35,0.1011 -0.6,0.1011 -0.95,0.1011z" fill="#080b0b"/><path d="M288.82173,147.44931c-0.2,0.4551 -0.6,0.4551 -0.95,0.4551c-0.65,0 -1.25,0 -1.9,-0.0506c-0.85,-0.0506 -1.75,-0.1517 -2.6,-0.2022c-0.3,-0.0506 -0.6,-0.1012 -0.95,-0.2023c-0.15,-0.0506 -0.3,-0.1517 -0.3,-0.3539c0,-0.1517 0.15,-0.3034 0.3,-0.354c0.2,-0.0505 0.4,-0.1011 0.6,-0.1011c1.65,0.1011 3.35,0.1517 5,0.2528c0.3,0 0.6,0.1517 0.8,0.5562z" fill="#07090a"/><path d="M278.52173,149.57291c-0.25,0.4551 -0.6,0.4551 -0.95,0.4551c-0.65,0 -1.25,0 -1.9,-0.0506c-0.9,-0.0506 -1.8,-0.1517 -2.7,-0.2528c-0.3,-0.0506 -0.6,-0.1517 -0.9,-0.2528c-0.1,-0.0506 -0.15,-0.2023 -0.15,-0.3034c0,-0.1011 0.1,-0.2022 0.2,-0.2528c0.25,-0.1517 0.5,-0.1517 0.8,-0.1517c0.65,0 1.35,0.0506 2,0.0506c0.85,0.0505 1.65,0.1517 2.5,0.1517c0.35,0.1011 0.8,0.1516 1.1,0.6067z" fill="#07090a"/><path d="M284.77173,156.14591c-0.25,0.4551 -0.6,0.5057 -0.95,0.5057c-0.65,0 -1.25,0 -1.9,-0.0506c-0.9,-0.0506 -1.8,-0.1517 -2.7,-0.2528c-0.25,-0.0506 -0.55,-0.1011 -0.8,-0.2023c-0.15,-0.0505 -0.3,-0.1517 -0.3,-0.3539c0,-0.2022 0.15,-0.3034 0.3,-0.3539c0.25,-0.0506 0.55,-0.1012 0.8,-0.1012c0.85,0 1.75,0.0506 2.6,0.1517c0.65,0.1012 1.25,0.0506 1.9,0.1012c0.4,0.0505 0.4,0.0505 1.05,0.5561z" fill="#060909"/><path d="M279.47173,153.01111c0.1,-0.5056 0.45,-0.5562 0.75,-0.5562c0.8,0 1.6,0 2.4,0.0506c0.8,0.0505 1.6,0.1011 2.35,0.1517c0.55,0.0505 0.55,0.0505 1.15,0.455c0.05,0.3034 -0.2,0.4045 -0.4,0.4551c-0.25,0.0505 -0.55,0.1011 -0.85,0.0505c-1.4,-0.1011 -2.85,-0.1516 -4.25,-0.3033c-0.4,0.0505 -0.8,0 -1.15,-0.3034z" fill="#060909"/><path d="M264.17173,145.83131c0.2,-0.2022 0.45,-0.2022 0.7,-0.2022c1.45,0.1011 2.95,0.2022 4.4,0.3034c0.4,0.0505 0.8,0.1011 1.15,0.3539c0.2,0.1011 0.25,0.3034 0.2,0.5056c-0.2,0.2022 -0.5,0.2022 -0.8,0.2022c-1.55,-0.1011 -3.1,-0.2022 -4.65,-0.3539c-0.25,0 -0.55,-0.1011 -0.8,-0.2528c-0.3,-0.1011 -0.3,-0.3539 -0.2,-0.5562z" fill="#070909"/><path d="M273.02173,146.64031c0.35,-0.3034 0.7,-0.3539 1.15,-0.3539c1.35,0.0505 2.7,0.1011 4.05,0.1517c0.4,0 0.8,0.0505 1.15,0.3033c0.1,0.1012 0.2,0.2528 0.15,0.4045c-0.05,0.1012 -0.15,0.2023 -0.25,0.2528c-0.25,0.0506 -0.45,0.1012 -0.7,0.1012c-1.35,0 -2.7,-0.0506 -4.05,-0.1012c-0.4,0 -0.8,-0.1011 -1.15,-0.2528c-0.2,-0.1011 -0.3,-0.2528 -0.35,-0.5056z" fill="#050606"/><path d="M262.37173,148.91561c0.35,-0.3539 0.75,-0.4551 1.15,-0.4045c1.4,0.1517 2.75,0.0506 4.15,0.1517c0.4,0 0.8,0.0506 1.1,0.3539c0.05,0.0506 0.15,0.2023 0.1,0.3034c0,0.1011 -0.1,0.2022 -0.2,0.2528c-0.25,0.0506 -0.45,0.1011 -0.7,0.1011c-1.4,0 -2.75,-0.0505 -4.15,-0.1011c-0.5,-0.0506 -1,-0.1011 -1.45,-0.6573z" fill="#050606"/><path d="M254.52173,145.02231c1.5,-0.1516 3,0.2528 4.6,0.2023c-0.15,0.7584 -0.55,1.3146 -0.85,1.9213c-1.35,2.427 -2.75,4.8034 -4.15,7.2304c-0.25,0.4045 -0.6,0.809 -0.75,1.2135c-0.25,0.5561 -0.7,0.7078 -1.15,0.6573c-2,-0.2023 -4,-0.0506 -5.95,-0.2529c-1.7,-0.1516 -3.4,-0.2022 -5.15,-0.3033c-0.3,0 -0.65,-0.0506 -0.95,-0.0506c0.05,-0.1011 0.15,-0.2022 0.2,-0.2528c1.3,-0.9607 2.65,-1.9213 3.95,-2.9326c3.25,-2.4269 6.55,-4.8033 9.9,-7.0786c0.1,-0.1012 0.15,-0.2528 0.3,-0.354z" fill="#00ff00"/><path d="M229.57173,154.93251c-1.35,-0.0506 -2.7,0.0505 -4.05,-0.3034c0.6,-1.4663 4.65,-8.191 6.4,-10.618c0.75,-0.0506 1.55,0 2.35,0.1011c0.3,0.0506 0.65,0.1012 0.95,0.1012c2.7,0.1011 5.4,0.2022 8.15,0.3033c0.1,0 0.25,0.0506 0.35,0.0506c-3.05,2.3258 -6.2,4.5 -9.35,6.7247c-1.65,1.1629 -3.2,2.427 -4.8,3.6405z" fill="#00ff00"/><path d="M229.57173,154.93251c1.6,-1.2135 3.15,-2.427 4.75,-3.5899c3.1,-2.2248 6.3,-4.3989 9.35,-6.7248c1.45,0.0506 2.95,0.1517 4.4,0.2023c-0.75,0.5562 -1.45,1.1124 -2.2,1.618c-2.35,1.7191 -4.7,3.3876 -7.05,5.1067c-1.7,1.2641 -3.4,2.5281 -5.05,3.7921c-1.3,-0.0505 -2.55,-0.1516 -3.85,-0.2528c-0.15,-0.0505 -0.25,-0.1011 -0.35,-0.1516z" fill="#87ff87"/><path d="M254.52173,145.02231c-0.1,0.1012 -0.2,0.2528 -0.3,0.354c-3.35,2.2753 -6.65,4.6517 -9.9,7.0786c-1.3,0.9607 -2.6,1.9214 -3.95,2.9326c-0.1,0.0506 -0.15,0.2023 -0.2,0.2528c-1,0.0506 -1.95,0.0506 -2.95,-0.1011c0.35,-0.6573 1.05,-1.0112 1.6,-1.4157c2,-1.6686 4.05,-3.2866 6.1,-4.854c1.95,-1.5168 4,-2.9326 6,-4.3988c1.15,0.1011 2.35,-0.0506 3.6,0.1516z" fill="#86ff86"/><path d="M250.87173,144.82011c-2,1.4663 -4,2.882 -6,4.3989c-2.05,1.5674 -4.1,3.1854 -6.1,4.8539c-0.55,0.4551 -1.2,0.7584 -1.6,1.4157c-1.15,-0.1011 -2.3,-0.1517 -3.45,-0.2528c1.7,-1.264 3.35,-2.5281 5.05,-3.7921c2.35,-1.7191 4.7,-3.3877 7.05,-5.1068c0.75,-0.5561 1.45,-1.1123 2.2,-1.6179c1,0 1.9,-0.0506 2.85,0.1011z" fill="#01ff01"/><path d="M192.92173,159.98861c-0.4,-0.1011 -0.7,-0.2022 -1.05,-0.3033c0.05,-0.1517 0.05,-0.2528 0.1,-0.354c0.4,-0.455 0.75,-0.9101 1.2,-1.4157c0.35,-0.1011 0.75,-0.1517 1.1,0.1011c-0.3,0.7584 -0.95,1.2135 -1.35,1.9719z" fill="#589ca0"/><path d="M192.12173,160.79761c0,0.5056 -0.3,0.7079 -0.5,1.0618c-0.6,-0.0505 -1.2,-0.1517 -1.9,-0.2022c0.2,-0.5056 0.45,-0.809 0.8,-1.0618c0.5,0.0505 1,0.1011 1.6,0.2022z" fill="#5ba3a7"/><path d="M190.57173,163.02231c-0.3,0.9102 -0.9,0.6573 -1.5,0.6068c0.25,-0.7584 0.25,-0.7584 1.5,-0.6068z" fill="#56999d"/><path d="M216.57173,153.97181c-0.35,0 -0.7,-0.1011 -1,-0.2528c-0.3,-0.1517 -0.3,-0.6068 -0.1,-0.809c0.35,-0.354 1.65,-0.5562 2.1,-0.1517c0.25,0.2528 0.3,0.5562 0.05,0.809c-0.25,0.3034 -0.55,0.4045 -1.05,0.4045z" fill="#01f4f4"/><path d="M217.92173,149.26951c-0.15,-0.809 -0.1,-0.9101 0.35,-1.1123c0.55,-0.2528 1.15,-0.3034 1.7,0.0505c0.35,0.2023 0.4,0.6573 0.1,0.9101c-0.35,0.354 -0.8,0.5057 -1.3,0.4045c-0.3,-0.0505 -0.6,-0.2022 -0.85,-0.2528z" fill="#35a76d"/><path d="M199.77173,152.91001c-0.55,0 -1.1,-0.3034 -1.15,-0.6068c-0.05,-0.4045 0.45,-0.809 1,-0.8595c0.3,0 0.55,0.0505 0.8,0.1517c0.4,0.2022 0.5,0.6573 0.15,0.9606c-0.25,0.2529 -0.55,0.354 -0.8,0.354z" fill="#da6694"/><path d="M209.62173,152.50551c-0.55,0.8595 -1.3,0.8595 -2.05,0.6067c-0.35,-0.1011 -0.5,-0.5562 -0.25,-0.7584c0.35,-0.4045 0.8,-0.5562 1.25,-0.5562c0.5,-0.0505 0.85,0.2023 1.05,0.7079z" fill="#01f001"/><path d="M207.07173,142.94931c-0.1,0.4045 -0.4,0.7079 -0.8,0.7584c-0.4,0.0506 -0.85,0.1517 -1.25,-0.1011c-0.15,-0.1011 -0.2,-0.2528 -0.15,-0.4045c0.05,-0.1011 0.1,-0.2022 0.2,-0.3034c0.25,-0.2528 0.6,-0.3539 1,-0.3539c0.3,0 0.7,0 1,0.4045z" fill="#008bda"/><path d="M201.27173,147.90441c0.25,-0.7079 0.7,-1.0618 1.4,-1.0618c0.6,0 0.7,0.0505 1.1,0.6573c-0.9,1.0112 -1.5,1.1123 -2.5,0.4045z" fill="#ebe502"/><path d="M220.47173,144.26391c0.15,-0.5056 0.45,-0.6573 0.8,-0.7079c0.4,-0.1011 0.8,-0.1516 1.15,0c0.25,0.1012 0.4,0.2529 0.45,0.5057c0,0.3033 -0.2,0.4045 -0.4,0.5056c-0.75,0.3539 -1.3,0.2528 -2,-0.3034z" fill="#f30001"/><path d="M212.32173,143.91001c0.1,-0.4551 0.5,-0.5056 0.8,-0.5562c0.4,-0.1011 0.8,-0.1517 1.15,0c0.35,0.1517 0.4,0.5562 0.1,0.7584c-0.35,0.2528 -0.7,0.354 -1.1,0.3034c-0.35,0.0506 -0.4,0 -0.95,-0.5056z" fill="#de93ad"/><path d="M212.22173,147.80321c-0.15,0.6573 -0.55,0.8596 -1,1.0113c-0.4,0.1517 -0.85,0.1011 -1.25,-0.1517c-0.3,-0.2023 -0.35,-0.5056 -0.1,-0.809c0.35,-0.3034 0.7,-0.5056 1.15,-0.5056c0.5,-0.0506 0.6,0 1.2,0.455z" fill="#865492"/></g><path d="M219.28473,150.03869c0,-1.38071 1.11929,-2.5 2.5,-2.5c1.38071,0 2.5,1.11929 2.5,2.5c0,1.38071 -1.11929,2.5 -2.5,2.5c-1.38071,0 -2.5,-1.11929 -2.5,-2.5z" fill="#000000" stroke="none" stroke-width="0.5" stroke-linecap="butt"/><path d="M231.65802,151.12406c0,-1.38071 1.11929,-2.5 2.5,-2.5c1.38071,0 2.5,1.11929 2.5,2.5c0,1.38071 -1.11929,2.5 -2.5,2.5c-1.38071,0 -2.5,-1.11929 -2.5,-2.5z" fill="#000000" stroke="none" stroke-width="0.5" stroke-linecap="butt"/><path d="M231.91157,155.55072c1.86852,1.66091 0.20761,3.52943 0.20761,3.52943l-1.78619,2.00785c-3.54286,3.42272 -6.43619,5.15191 -10.66983,0.98983c-0.78694,-0.77364 -0.9712,-1.9819 -1.45679,-2.97285c0,0 -1.03451,-2.27592 1.24141,-3.31042c2.27592,-1.03451 3.31042,1.24141 3.31042,1.24141c1.25186,3.16104 1.74502,2.93601 3.93694,0.62188l1.68701,-1.89951c0,0 1.66091,-1.86852 3.52943,-0.20761z" fill="#000000" stroke="none" stroke-width="0.5" stroke-linecap="butt"/></g></g></svg>